<?xml version="1.0" encoding="utf-8"?>
<!-- Generator: Adobe Illustrator 24.2.1, SVG Export Plug-In . SVG Version: 6.00 Build 0)  -->
<svg version="1.1" id="Layer_1" xmlns="http://www.w3.org/2000/svg" xmlns:xlink="http://www.w3.org/1999/xlink" x="0px" y="0px"
	 viewBox="0 0 800 800" style="enable-background:new 0 0 800 800;" xml:space="preserve">
<style type="text/css">
	.st0{fill:#FFFFFF;}
</style>
<g>
	<path class="st0" d="M440.68,268.35l26.02,17.83c0,0,11.15,39.06,8.63,87.61c0,0,15.49-44.06,6.86-77.84l26.62,17.77
		c0,0,2.14,54.44-1.82,78.37c0,0,19.07-46.8,13.67-72.13l27.7,16.19c0,0,2.88,64.04-5.04,105.91s-20.15,118.23-14.03,164.32
		l-62.95-27.09l-59.36,27.09c0,0,5.4-73.19,18.35-119.28C438.28,440.99,466.82,359.95,440.68,268.35z"/>
	<path class="st0" d="M358.06,165.49c0,0-23.74,20.76-4.68,84.09l68.71,3.52c0,0,28.42-28.15,11.87-78.46L358.06,165.49z"/>
	<path class="st0" d="M441.88,254.86c0,0,71.23,45.39,144.61,83.74s182.02,36.59,189.58-18.65c7.55-55.24,5.4-110.66,5.4-110.66
		s-48.56,11.44-137.06-7.92S548,170.41,453.03,177.1l0.36,14.07c0,0,48.2-1.41,74.46,14.07c0,0-30.94,2.11-74.1-5.28l-3.6,27.45
		c0,0,46.77,17.59,72.67,17.24c0,0-41.01,7.74-75.18-1.41L441.88,254.86z"/>
	<path class="st0" d="M485.41,159.51c0,0,62.95-18.65,116.55-21.46c53.6-2.81,89.21-9.5,105.4-27.45c0,0,27.34,49.26,24.1,90.78
		c0,0-49.28-6.69-108.28-23.22C564.19,161.62,541.89,158.8,485.41,159.51z"/>
	<path class="st0" d="M738.3,160.56c0,0,10.43,32.72,7.91,40.82c0,0,35.25,6.69,37.41-11.96S738.3,160.56,738.3,160.56z"/>
	<path class="st0" d="M485.41,144.02c0,0,108.28-41.29,138.02-52.54s73.39-15.95,73.39,3.28S640.45,113.53,485.41,144.02z"/>
	<path class="st0" d="M339,173.11l6.98-12.55c0,0-26.16-36.71-71.25-57.35S88.63,41.28,67.52,45.03
		C46.42,48.79,16.2,201.38,16.2,201.38s62.35,0.82,109.36,22.87s163.56,54.89,215.84,28.85l-8.19-27.26c0,0-46.97,8.73-86.78-11.91
		c0,0,30.57,4.47,86.2-0.01l1.57-26.26c0,0-54.2-19.7-76.26-19.7C257.94,167.95,295.83,154.81,339,173.11z"/>
	<path class="st0" d="M21.48,214.63c0,0,23.5,15.48,29.74,16.42s3.84-12.9,3.84-12.9L21.48,214.63z"/>
	<path class="st0" d="M64.52,222.86l12.95,80.2c0,0,46.05-14.07,91.01-15.48s107.56,0,134.54-11.26c0,0-82.02-3.52-141.37-21.11
		S98.9,225.59,64.52,222.86z"/>
	<path class="st0" d="M85.27,315.5c0,0,15.83,6.1,69.79,2.11s91.85-19.47,91.85-19.47s-67.63,3.75-92.81,6.1
		C128.91,306.58,98.94,308.23,85.27,315.5z"/>
	<path class="st0" d="M260.58,308.55l16.23-7.31c0,0-17.69,20.74-0.37,62.35c0,0-2.54-46.01,17.48-68.03l9.11-3.52
		c0,0-13.07,14.86-4.8,35.66c0,0,10.31-40.11,28.3-46.91c0,0-9.11,46.68,0,101.57c9.11,54.89,39.09,155.41,45.57,205.02
		s9.35,138.99,7.19,152c0,0-39.93-18.65-65.83-22.87c0,0-36.33,26.74-57.56,38.7c0,0,8.63-57.71,3.96-104.15
		s-28.78-162.21-30.94-217.1c-2.16-54.89-1.8-108.73,5.04-119.63l15.29-3.52c0,0-10.25,16.19-4.14,51.72
		c6.12,35.54,16.48,49.08,22.66,67.21c0,0-10.35-40.64-12.46-68.35C253.2,333.74,260.58,308.55,260.58,308.55z"/>
</g>
</svg>
