<?xml version="1.0" encoding="utf-8"?>
<!-- Generator: Adobe Illustrator 24.2.1, SVG Export Plug-In . SVG Version: 6.00 Build 0)  -->
<svg version="1.1" id="Layer_1" xmlns="http://www.w3.org/2000/svg" xmlns:xlink="http://www.w3.org/1999/xlink" x="0px" y="0px"
	 viewBox="0 0 800 800" style="enable-background:new 0 0 800 800;" xml:space="preserve">
<style type="text/css">
	.st0{fill:#EADAD3;}
</style>
<g>
	<g>
		<path class="st0" d="M307.75,661.92c-1.07,7.56-7.37,26.62-8.97,29.66c-0.27,0.45-0.53,0.91-0.85,1.31
			c-1.23,1.68-2.86,2.96-3.66,3.55c-0.35,0.24-0.51,0.61-0.51,1.01l0.16,5.61c0,0.27-0.08,0.51-0.21,0.69
			c-1.31,2.03-8.57,13.19-10.04,15.17c-1.63,2.16-6.65,7.56-8.44,15.27c-1.82,7.72-0.56,16.53-1.09,22.83
			c-0.53,6.3-1.44,12.42-0.88,19.41c0.08,0.99,0.19,2.03,0.32,3.15C114.6,726.69,0,576.72,0,399.99
			C0,199.31,147.79,33.15,340.51,4.42l-0.48,1.28c-0.08,0.16-0.16,0.29-0.27,0.43c-0.56,0.56-2.4,2.38-3.6,2.7
			c-1.36,0.32-20.59,24.22-22.48,26.59c-0.13,0.13-0.19,0.27-0.24,0.43c-0.29,1.09-1.58,5.74-2.99,12.18
			c-1.6,7.37-7,21.01-12.58,36.66c-5.55,15.65-7.02,44.94-7.02,44.94s-0.35,0.91,3.95,7.9c4.33,7.02,10.79,35.06,15.49,49.26
			c4.33,13.19,15.17,27.93,16.71,29.98c0.11,0.16,0.19,0.32,0.21,0.53c1.52,10.76,7.56,21.84,8.73,23.95
			c0.13,0.24,0.19,0.51,0.16,0.77c-0.08,0.4-0.19,1.07-0.32,1.98c0,0,0,0.03,0,0.08c-0.03,0.08-0.05,0.21-0.08,0.32
			c-0.03,0.16-0.05,0.35-0.08,0.59c-0.61,3.76-1.68,10.31-3.07,17.84c-2.14,11.88,1.09,41.89,2.72,51.77
			c1.6,9.91,4.11,27.15,1.6,38.13c-1.31,5.69-3.9,12.74-6.11,18.24c-1.17,2.96-2.27,5.5-2.96,7.08c-0.35,0.77-0.59,1.34-0.69,1.6
			c-0.08,0.16-0.16,0.27-0.29,0.4c-1.82,1.71-17.76,16.77-22.83,23.36c-5.39,7.02-17.25,24.11-25.18,33.46
			c-7.16,8.46-36.1,45.58-41.55,52.52c-0.45,0.59-0.27,1.47,0.4,1.84c3.07,1.63,11.53,5.87,23.04,9.35c0.13,0.03,0.27,0.08,0.4,0.11
			c12.71,3.77,25.71,2,29.13,1.42c0.51-0.08,0.99,0.13,1.26,0.56c0.69,1.12,2.67,3.18,7.82,3.23c4.49,0.05,7-1.6,8.22-2.83
			c0.53-0.53,1.39-0.45,1.84,0.13c0.59,0.75,1.5,1.49,2.88,1.44c2-0.05,3.74-1.6,4.46-2.35c0.27-0.27,0.61-0.4,0.96-0.37
			c2.27,0.16,7-0.32,8.49-0.45c0.29-0.03,0.56-0.19,0.77-0.4l1.44-1.58c0.64-0.75,1.87-0.43,2.08,0.53
			c0.13,0.56,0.64,0.96,1.23,0.96c5.21-0.05,12.28-2.3,16.9-4.03l4.41-1.74l0.24-0.11c0,0-13.48,51.05-15.83,61.68
			c-2.32,10.6-2.51,17.6-4.49,29.82c-1.98,12.23-12.04,27.69-15.65,35.97C313.7,630.84,308.84,654.39,307.75,661.92z"/>
	</g>
	<g>
		<path class="st0" d="M458.05,759.54c4.01,17.76,8.62,27.58,12.76,34.2c-22.99,4.11-46.65,6.25-70.81,6.25
			c-31.85,0-62.85-3.71-92.54-10.79c0.8-3.42,1.6-6.94,2.11-9.88c1.42-8.09-3.42-26.35-3.6-28.14c-0.11-0.99-1.07-2-1.52-2.16
			c-0.45-0.16,1.74-1.31,1.71-1.79l1.47-8.6c-0.03-0.19,0-0.4,0.08-0.59c0.67-1.58,2.62-9.43,3.58-11.05
			c0.99-1.63,2.56-10.55,2.59-12.02c0-0.13,0.03-0.27,0.08-0.37c1.04-2.8,2.99-6.41,5.39-10.41c6.17-10.23,15.43-23.18,20.96-32.55
			c7.74-13.14,25.34-36.69,28.76-51.24c3.42-14.58,4.86-30.73,7.02-43.33c1.63-9.51,6.65-17.09,9-20.19
			c0.56-0.75,1.68-0.61,2.08,0.21c3.23,6.78,15.14,31.37,20.4,38.31c6.11,8.09,10.95,20.32,14.71,28.94
			c3.79,8.62,8.28,28.22,13.67,38.85c5.39,10.6,12.95,35.4,14.36,44.38c0.05,0.29,0.11,0.59,0.16,0.91
			C451.85,717.91,453.19,737.96,458.05,759.54z"/>
	</g>
	<g>
		<path class="st0" d="M800,399.99c0,187.92-129.58,345.53-304.23,388.44c-0.75-11.32,0-25.71,3.98-33.19
			c4.81-9,12.58-20.85,7.08-27.82c-5.53-6.94-11.75-1.68-16.9-3.71c-4.97-1.95-8.92-13.67-10.28-24.51
			c-0.05-0.4-0.11-0.83-0.16-1.25c-1.17-11.13-2.99-44.11-4.65-62.43c-1.68-18.34-6.73-33.8-17.62-45.2
			c-10.92-11.37-13.91-18.45-17.14-31.75c-3.23-13.3-4.33-30.09-5.63-43.15c-1.31-13.06-7.45-25.77-7.45-25.77s0.05-0.05,0.16-0.19
			c6.38-6.62,17.86-10.25,21.12-11.19c0.53-0.16,0.88-0.64,0.88-1.2l-0.03-1.04c-0.03-1.23,1.6-1.71,2.27-0.67l0.67,1.04
			c0.27,0.45,0.83,0.67,1.34,0.53c5.45-1.44,8.78-1.63,10.63-1.55c0.85,0.03,1.47-0.8,1.2-1.6l-0.4-1.15
			c-0.24-0.8,0.35-1.6,1.17-1.6c9.21,0.08,20.59-5.37,22.27-6.19c0.16-0.08,0.32-0.13,0.48-0.13c6.14-0.32,8.44-1.74,9.29-2.83
			c0.43-0.53,1.25-0.59,1.76-0.13l0.48,0.43c0.27,0.24,0.64,0.37,0.99,0.29c21.39-3.23,41.71-18.13,42.35-18.61
			c-0.43-6.38-8.04-15.99-9.75-18.05c-0.21-0.27-0.29-0.59-0.27-0.93l1.63-12.44c0.08-0.56-0.24-1.07-0.75-1.28l-0.11-0.05
			c-0.43-0.19-0.72-0.61-0.75-1.1l-0.19-5.58c0-0.37-0.19-0.72-0.45-0.93c-22.11-17.06-66.32-27.23-86.94-30.57
			c-3.79-0.61-7.42-1.6-10.76-2.88c-14.79-5.79-23.15-17.84-10.33-31.75c14.85-16.07,26.89-43.71,28.17-46.73
			c0.08-0.16,0.21-0.32,0.35-0.43c0.35-0.29,0.67-0.56,0.99-0.85c7.85-6.84,12.12-14.42,15.19-14.2c3.26,0.24,8.65,7.21,20.27,14.52
			c11.61,7.29,27.45,12.34,41.36,18.32c13.88,5.98,10.79,8.86,25.05,14.98c13.48,5.79,75.48,20.19,82.02,21.68
			c0.35,0.11,0.61,0.35,0.8,0.67c4.17,8.09,20.53,19.95,22.56,21.39c0.13,0.08,0.24,0.21,0.32,0.35
			c1.2,1.98,10.25,17.04,11.51,18.48c1.31,1.58,3.47-0.11,3.47-1.55c0-0.48-0.43-1.84-1.01-3.5c-0.48-1.39,1.47-2.3,2.22-1.01
			c2.3,4.01,4.41,8.41,5.1,9.93c0.19,0.37,0.53,0.64,0.93,0.69c1.55,0.21,5.34,0.35,5.82-3.36c0.48-3.63-6.14-17.92-9.05-24.03
			c-0.48-1.01,0.51-2.06,1.55-1.66l1.26,0.48c0.24,0.11,0.45,0.29,0.59,0.51c1.17,1.98,6.78,11.37,7.21,12.12
			c0.48,0.83,4.33,2.75,5.39,1.2c1.09-1.58-5.26-16.55-8.86-19.54c-3.58-2.99-12.82-10.17-16.42-13.54
			c-3.58-3.36-19.76-15.35-24.8-17.86c-5.05-2.51-16.07-5.63-31.99-12.23c-15.94-6.59-35.97-19.28-40.4-21.2
			c-4.43-1.92-13.43-2.99-19.78-6.11s-22.27-9.83-29.96-15.35c-7.66-5.5-24.22-20.24-29.82-26.59
			c-5.63-6.35-13.43-10.79-18.34-13.78c-3.1-1.9-11.32-3.92-17.14-5.45c-3.39-0.88-5.95-1.58-6.22-2l-0.29-0.29
			c-1.71-1.58-9.67-6.62-14.1-10.95c-2.99-2.91-4.17-7.64-4.62-10.76c-0.03-0.27,0-0.51,0.11-0.72c0.29-0.64,1.09-0.93,1.76-0.51
			c1.39,0.96,3.44,1.84,6.22,1.79c3.84-0.08,4.89-3.31,5.18-5.45c0.11-0.8,0.93-1.25,1.68-0.93c1.9,0.8,5.34,1.34,9.56-2
			c7.74-6.17,4.3-13.72,2.78-16.34c-0.32-0.51-0.21-1.2,0.27-1.58c5.61-4.43,8.36-12.1,10.07-18.77c2.38-9.32,3.66-19.25-0.56-28.22
			c-2.35-5.02-5.95-9.43-10.04-13.19c-2.54-2.32-5.34-4.46-8.46-5.93c-1.55-0.69-3.15-1.25-4.83-1.55c-1.23-0.24-3.6,0.16-4.62-0.67
			c-11.51-9.05-27.31-8.81-39.41-0.93c-1.39,0.91-2.72,1.9-3.98,2.94c-3.52,2.86-6.62,6.22-9.37,9.83c-1.42,1.82-3.55,4.03-4.3,6.22
			c-0.61,1.9-0.05,4.49,0.24,6.38c0.08,0.51-0.13,0.96-0.56,1.23c-2.54,1.58-11.29,7.18-12.07,9.64c-0.61,2,1.68,4.33,3.15,5.58
			c0.48,0.4,0.56,1.09,0.21,1.6c-0.32,0.51-0.75,1.34-1.2,2.7c-1.26,3.79-0.37,9.91-0.91,12.42c-0.53,2.51-5.21,5.93-1.79,11.13
			c3.42,5.23,8.81,4.14,16.71,8.81c7.9,4.67,7.72,12.23,3.07,18.88c-2.14,3.02-6.09,5.13-9.83,6.54c-2.51,0.99-4.94,1.63-6.57,2
			c-0.32,0.08-0.59,0.13-0.83,0.19c-0.67,0.13-1.28-0.29-1.44-0.96c-0.35-1.5-1.44-4.33-5.07-8.3
			c-5.21-5.71-25.02-26.01-27.61-28.65c-0.19-0.19-0.29-0.43-0.32-0.69c-1.9-14.74-17.3-42.32-19.6-46.38
			c-0.19-0.32-0.21-0.69-0.08-1.04c3.18-8.25,3.02-27.9,3.2-45.31c0.16-15.99,4.25-33.48,5.07-36.82c0.08-0.35,0.35-0.64,0.67-0.8
			c13.91-6.35,19.97-16.85,21.04-18.82c0.13-0.24,0.29-0.4,0.53-0.53c2.03-0.99,12.15-6.14,13.14-8.09c0.53-1.07,0.08-2-0.51-2.7
			c-0.51-0.59-0.29-1.52,0.4-1.87c1.25-0.61,2.78-1.47,2.96-2.08c0.11-0.24,0.05-0.48-0.08-0.69c-0.4-0.72,0.03-1.63,0.85-1.76
			l1.52-0.29c0.37-0.08,0.72-0.35,0.88-0.69c0.48-1.07,1.31-3.31,0.21-4.19c9.35-0.67,18.77-0.99,28.28-0.99
			C620.89,0.01,800,179.09,800,399.99z"/>
	</g>
</g>
</svg>
