<?xml version="1.0" encoding="utf-8"?>
<!-- Generator: Adobe Illustrator 24.2.1, SVG Export Plug-In . SVG Version: 6.00 Build 0)  -->
<svg version="1.1" id="Layer_1" xmlns="http://www.w3.org/2000/svg" xmlns:xlink="http://www.w3.org/1999/xlink" x="0px" y="0px"
	 viewBox="0 0 650 800" style="enable-background:new 0 0 650 800;" xml:space="preserve">
<style type="text/css">
	.st0{fill:#EADAD3;}
</style>
<g>
	<g>
		<path class="st0" d="M172.95,624.91h28.39l32.85,61.24h-26.89l-4.83-10.48h-30.67l-4.83,10.48H140.1L172.95,624.91z
			 M178.74,660.73h16.81l-8.38-18.09L178.74,660.73z"/>
		<path class="st0" d="M295.77,624.82h23.92v61.24h-26.89l-32.9-37.41v37.41h-23.88v-61.24h32.85l26.89,32.44V624.82z"/>
		<path class="st0" d="M390.05,624.82h23.92v61.24h-26.89l-32.9-37.41v37.41h-23.88v-61.24h32.85l26.89,32.44V624.82z"/>
		<path class="st0" d="M448.66,624.91h28.39l32.85,61.24h-26.89l-4.83-10.48h-30.67l-4.83,10.48H415.8L448.66,624.91z
			 M454.44,660.73h16.81l-8.38-18.09L454.44,660.73z"/>
	</g>
	<g>
		<path class="st0" d="M86.88,716.3c12.62-0.14,23.33,10.48,23.15,23.15c0,4.6-1.23,8.79-3.69,12.53c-2.42,3.69-5.65,6.52-9.66,8.38
			l13.35,17.18H84.6L73.07,762.6H51.75v14.95H27.87V716.3H86.88z M51.75,734.21v10.43h29.12c1.46,0,2.69-0.5,3.69-1.5
			c1.05-1.05,1.55-2.28,1.55-3.69c0-2.92-2.32-5.24-5.24-5.24H51.75z"/>
		<path class="st0" d="M150.82,738.31l17.95-21.96h28.34l-34.36,40.33v20.92h-23.88v-20.92l-34.36-40.33h28.39L150.82,738.31z"/>
		<path class="st0" d="M281.11,761.14c0.14,10.71-8.89,16.45-19.41,16.45h-62.75v-61.24h58.24c10.62-0.05,19.59,5.74,19.46,16.41
			c0,5.88-2.73,10.39-7.11,13.17C276.46,748.15,281.11,753.44,281.11,761.14z M222.83,730.88v8.25h27.66c2.05,0,3.74-2.1,3.74-4.15
			s-1.69-4.1-3.74-4.1H222.83z M254.95,763.01c2.05,0,3.74-2.05,3.74-4.1s-1.69-4.1-3.74-4.1h-32.13v8.2H254.95z"/>
		<path class="st0" d="M313.47,716.34h28.39l32.85,61.24h-26.89L343,767.11h-30.67l-4.83,10.48h-26.89L313.47,716.34z
			 M319.26,752.16h16.81l-8.38-18.09L319.26,752.16z"/>
		<path class="st0" d="M400.42,716.25v41.83h47.8v19.41h-71.68v-61.24H400.42z"/>
		<path class="st0" d="M480.18,756.58v20.92H456.3v-61.24h23.88v20.92h10.44l22.47-20.92h31.35l-31.76,30.62l31.76,30.62h-31.35
			l-22.47-20.92H480.18z"/>
		<path class="st0" d="M622.13,744.64v4.47c0.09,23.15-18.77,29.85-41.79,29.89c-23.06-0.05-41.92-6.74-41.83-29.89v-4.47
			c-0.09-23.19,18.77-29.85,41.83-29.89C603.4,714.75,622.13,721.49,622.13,744.64z M598.25,746.1c0.14-9.98-8.16-11.8-17.91-11.94
			c-9.8,0.14-18.09,1.96-17.95,11.94v1.5c-0.14,10.02,8.16,11.85,17.95,11.98c9.75-0.14,18.05-1.96,17.91-11.98V746.1z"/>
	</g>
	<g>
		<g>
			<path class="st0" d="M259.19,493.19c-0.76,5.39-5.26,18.99-6.4,21.16c-0.19,0.32-0.38,0.65-0.61,0.93
				c-0.88,1.2-2.04,2.11-2.61,2.53c-0.25,0.17-0.36,0.44-0.36,0.72l0.11,4c0,0.19-0.06,0.36-0.15,0.5
				c-0.93,1.45-6.11,9.41-7.16,10.82c-1.16,1.54-4.74,5.39-6.02,10.9c-1.3,5.5-0.4,11.79-0.78,16.29
				c-0.38,4.49-1.03,8.86-0.63,13.85c0.06,0.7,0.13,1.45,0.23,2.25C121.4,539.39,39.65,432.41,39.65,306.33
				c0-143.16,105.43-261.69,242.91-282.19l-0.34,0.91c-0.06,0.11-0.11,0.21-0.19,0.3c-0.4,0.4-1.71,1.7-2.57,1.92
				c-0.97,0.23-14.69,17.28-16.04,18.97c-0.1,0.1-0.13,0.19-0.17,0.3c-0.21,0.78-1.12,4.1-2.13,8.69
				c-1.14,5.26-4.99,14.99-8.97,26.15c-3.96,11.16-5.01,32.06-5.01,32.06s-0.25,0.65,2.82,5.64c3.09,5.01,7.7,25.01,11.05,35.14
				c3.09,9.41,10.82,19.92,11.92,21.39c0.08,0.11,0.13,0.23,0.15,0.38c1.09,7.68,5.39,15.58,6.23,17.09
				c0.1,0.17,0.13,0.36,0.11,0.55c-0.06,0.29-0.13,0.76-0.23,1.41c0,0,0,0.02,0,0.06c-0.02,0.06-0.04,0.15-0.06,0.23
				c-0.02,0.11-0.04,0.25-0.06,0.42c-0.44,2.69-1.2,7.35-2.19,12.72c-1.52,8.48,0.78,29.89,1.94,36.93
				c1.14,7.07,2.93,19.37,1.14,27.2c-0.93,4.06-2.78,9.09-4.36,13.01c-0.84,2.11-1.62,3.92-2.11,5.05c-0.25,0.55-0.42,0.95-0.5,1.14
				c-0.06,0.11-0.11,0.19-0.21,0.29c-1.3,1.22-12.67,11.96-16.29,16.67c-3.85,5.01-12.3,17.2-17.96,23.87
				c-5.1,6.04-25.75,32.51-29.64,37.47c-0.32,0.42-0.19,1.05,0.29,1.31c2.19,1.16,8.23,4.19,16.44,6.67
				c0.1,0.02,0.19,0.06,0.29,0.08c9.07,2.69,18.34,1.43,20.78,1.01c0.36-0.06,0.7,0.09,0.9,0.4c0.5,0.8,1.9,2.27,5.58,2.3
				c3.2,0.04,4.99-1.14,5.87-2.02c0.38-0.38,0.99-0.32,1.31,0.1c0.42,0.53,1.07,1.07,2.06,1.03c1.43-0.04,2.67-1.14,3.18-1.68
				c0.19-0.19,0.44-0.29,0.69-0.27c1.62,0.11,4.99-0.23,6.06-0.32c0.21-0.02,0.4-0.13,0.55-0.29l1.03-1.12
				c0.46-0.53,1.33-0.3,1.49,0.38c0.1,0.4,0.46,0.69,0.88,0.69c3.71-0.04,8.76-1.64,12.06-2.88l3.14-1.24l0.17-0.08
				c0,0-9.62,36.42-11.3,44c-1.66,7.56-1.79,12.55-3.2,21.28s-8.59,19.75-11.16,25.66C263.44,471.01,259.97,487.81,259.19,493.19z"
				/>
		</g>
		<g>
			<path class="st0" d="M366.41,562.82c2.86,12.67,6.15,19.68,9.1,24.4c-16.4,2.93-33.28,4.46-50.51,4.46
				c-22.72,0-44.84-2.65-66.02-7.7c0.57-2.44,1.14-4.95,1.5-7.05c1.01-5.77-2.44-18.8-2.57-20.08c-0.08-0.7-0.76-1.43-1.09-1.54
				c-0.32-0.11,1.24-0.93,1.22-1.28l1.05-6.13c-0.02-0.13,0-0.29,0.06-0.42c0.48-1.12,1.87-6.72,2.55-7.89
				c0.7-1.16,1.83-7.52,1.85-8.57c0-0.1,0.02-0.19,0.06-0.27c0.74-2,2.13-4.57,3.85-7.43c4.4-7.3,11.01-16.53,14.95-23.22
				c5.52-9.37,18.08-26.17,20.51-36.55c2.44-10.4,3.47-21.92,5.01-30.91c1.16-6.78,4.74-12.19,6.42-14.4
				c0.4-0.53,1.2-0.44,1.49,0.15c2.3,4.84,10.8,22.38,14.55,27.33c4.36,5.77,7.81,14.5,10.5,20.65c2.7,6.15,5.9,20.13,9.75,27.71
				c3.85,7.56,9.24,25.26,10.25,31.66c0.04,0.21,0.08,0.42,0.11,0.65C361.99,533.13,362.94,547.43,366.41,562.82z"/>
		</g>
		<g>
			<path class="st0" d="M610.35,306.33c0,134.06-92.44,246.49-217.03,277.1c-0.53-8.08,0-18.34,2.84-23.68
				c3.43-6.42,8.97-14.88,5.05-19.85c-3.94-4.95-8.38-1.2-12.06-2.65c-3.54-1.39-6.36-9.75-7.33-17.49
				c-0.04-0.29-0.08-0.59-0.11-0.9c-0.84-7.94-2.13-31.47-3.31-44.53c-1.2-13.09-4.8-24.11-12.57-32.25
				c-7.79-8.11-9.92-13.16-12.23-22.65c-2.3-9.49-3.09-21.47-4.02-30.78c-0.93-9.31-5.31-18.38-5.31-18.38s0.04-0.04,0.11-0.13
				c4.55-4.72,12.74-7.31,15.07-7.98c0.38-0.11,0.63-0.46,0.63-0.86l-0.02-0.74c-0.02-0.88,1.14-1.22,1.62-0.48l0.48,0.74
				c0.19,0.32,0.59,0.48,0.95,0.38c3.89-1.03,6.27-1.16,7.58-1.1c0.61,0.02,1.05-0.57,0.86-1.14l-0.29-0.82
				c-0.17-0.57,0.25-1.14,0.84-1.14c6.57,0.06,14.69-3.83,15.89-4.42c0.11-0.06,0.23-0.09,0.34-0.09c4.38-0.23,6.02-1.24,6.63-2.02
				c0.3-0.38,0.9-0.42,1.26-0.1l0.34,0.3c0.19,0.17,0.46,0.27,0.7,0.21c15.26-2.31,29.75-12.93,30.21-13.28
				c-0.3-4.55-5.73-11.41-6.95-12.88c-0.15-0.19-0.21-0.42-0.19-0.67l1.16-8.88c0.06-0.4-0.17-0.76-0.53-0.91l-0.08-0.04
				c-0.3-0.13-0.51-0.44-0.53-0.78l-0.13-3.98c0-0.27-0.13-0.51-0.32-0.67c-15.77-12.17-47.31-19.43-62.02-21.81
				c-2.7-0.44-5.3-1.14-7.68-2.06c-10.55-4.13-16.51-12.72-7.37-22.65c10.59-11.47,19.18-31.18,20.1-33.33
				c0.06-0.11,0.15-0.23,0.25-0.3c0.25-0.21,0.48-0.4,0.7-0.61c5.6-4.88,8.65-10.29,10.84-10.13c2.32,0.17,6.17,5.14,14.46,10.36
				c8.29,5.2,19.58,8.8,29.5,13.07c9.9,4.27,7.7,6.32,17.87,10.69c9.62,4.13,53.85,14.4,58.51,15.47c0.25,0.08,0.44,0.25,0.57,0.48
				c2.97,5.77,14.65,14.23,16.1,15.26c0.1,0.06,0.17,0.15,0.23,0.25c0.86,1.41,7.31,12.15,8.21,13.18c0.93,1.12,2.48-0.08,2.48-1.1
				c0-0.34-0.3-1.31-0.72-2.5c-0.34-0.99,1.05-1.64,1.58-0.72c1.64,2.86,3.14,6,3.64,7.09c0.13,0.27,0.38,0.46,0.67,0.5
				c1.1,0.15,3.81,0.25,4.15-2.4c0.34-2.59-4.38-12.78-6.46-17.14c-0.34-0.72,0.36-1.47,1.1-1.18l0.9,0.34
				c0.17,0.08,0.32,0.21,0.42,0.36c0.84,1.41,4.84,8.11,5.14,8.65c0.34,0.59,3.09,1.96,3.85,0.86c0.78-1.12-3.75-11.81-6.32-13.94
				c-2.55-2.13-9.14-7.26-11.71-9.66c-2.55-2.4-14.1-10.95-17.7-12.74c-3.6-1.79-11.47-4.02-22.82-8.72
				c-11.37-4.7-25.66-13.75-28.82-15.12c-3.16-1.37-9.58-2.13-14.11-4.36c-4.53-2.23-15.89-7.01-21.37-10.95
				c-5.47-3.92-17.28-14.44-21.28-18.97c-4.02-4.53-9.58-7.7-13.09-9.83c-2.21-1.35-8.08-2.8-12.23-3.89
				c-2.42-0.63-4.25-1.12-4.44-1.43l-0.21-0.21c-1.22-1.12-6.9-4.72-10.06-7.81c-2.13-2.08-2.97-5.45-3.3-7.68
				c-0.02-0.19,0-0.36,0.08-0.51c0.21-0.46,0.78-0.67,1.26-0.36c0.99,0.69,2.46,1.31,4.44,1.28c2.74-0.06,3.49-2.36,3.7-3.89
				c0.08-0.57,0.67-0.9,1.2-0.67c1.35,0.57,3.81,0.95,6.82-1.43c5.52-4.4,3.07-9.79,1.98-11.66c-0.23-0.36-0.15-0.86,0.19-1.12
				c4-3.16,5.96-8.63,7.18-13.39c1.7-6.65,2.61-13.73-0.4-20.13c-1.68-3.58-4.25-6.72-7.16-9.41c-1.81-1.66-3.81-3.18-6.04-4.23
				c-1.1-0.5-2.25-0.9-3.45-1.1c-0.88-0.17-2.57,0.11-3.3-0.48c-8.21-6.46-19.49-6.29-28.11-0.67c-0.99,0.65-1.94,1.35-2.84,2.1
				c-2.51,2.04-4.72,4.44-6.69,7.01c-1.01,1.3-2.53,2.88-3.07,4.44c-0.44,1.35-0.04,3.2,0.17,4.55c0.06,0.36-0.1,0.69-0.4,0.88
				c-1.81,1.12-8.06,5.12-8.61,6.88c-0.44,1.43,1.2,3.09,2.25,3.98c0.34,0.29,0.4,0.78,0.15,1.14c-0.23,0.36-0.53,0.95-0.86,1.92
				c-0.9,2.7-0.27,7.07-0.65,8.86c-0.38,1.79-3.71,4.23-1.28,7.94c2.44,3.73,6.29,2.95,11.92,6.29c5.64,3.33,5.5,8.72,2.19,13.47
				c-1.52,2.15-4.34,3.66-7.01,4.67c-1.79,0.7-3.52,1.16-4.69,1.43c-0.23,0.06-0.42,0.1-0.59,0.13c-0.48,0.1-0.91-0.21-1.03-0.69
				c-0.25-1.07-1.03-3.09-3.62-5.92c-3.71-4.08-17.85-18.55-19.7-20.44c-0.13-0.13-0.21-0.3-0.23-0.5
				c-1.35-10.51-12.34-30.19-13.98-33.09c-0.13-0.23-0.15-0.5-0.06-0.74c2.27-5.89,2.15-19.9,2.29-32.32
				c0.11-11.41,3.03-23.89,3.62-26.27c0.06-0.25,0.25-0.46,0.48-0.57c9.92-4.53,14.25-12.02,15.01-13.43
				c0.1-0.17,0.21-0.29,0.38-0.38c1.45-0.7,8.67-4.38,9.37-5.77c0.38-0.76,0.06-1.43-0.36-1.92c-0.36-0.42-0.21-1.09,0.29-1.33
				c0.9-0.44,1.98-1.05,2.11-1.49c0.08-0.17,0.04-0.34-0.06-0.5c-0.29-0.51,0.02-1.16,0.61-1.26l1.09-0.21
				c0.27-0.06,0.51-0.25,0.63-0.5c0.34-0.76,0.93-2.36,0.15-2.99C311.5,21.23,318.22,21,325,21
				C482.58,21,610.35,148.75,610.35,306.33z"/>
		</g>
	</g>
</g>
</svg>
